<svg width="24" height="24" viewBox="0 0 24 24" fill="none" xmlns="http://www.w3.org/2000/svg">
<path d="M12 1C5.925 1 1 5.925 1 12C1 18.075 5.925 23 12 23C18.075 23 23 18.075 23 12C23 5.925 18.075 1 12 1ZM12 21C7.031 21 3 16.969 3 12C3 7.031 7.031 3 12 3C16.969 3 21 7.031 21 12C21 16.969 16.969 21 12 21ZM12 7C11.45 7 11 7.45 11 8V13C11 13.55 11.45 14 12 14C12.55 14 13 13.55 13 13V8C13 7.45 12.55 7 12 7ZM12 15C11.45 15 11 15.45 11 16C11 16.55 11.45 17 12 17C12.55 17 13 16.55 13 16C13 15.45 12.55 15 12 15Z" fill="currentColor"/>
<path d="M15 9C15 8.44772 14.5523 8 14 8L10 8C9.44772 8 9 8.44772 9 9C9 9.55228 9.44772 10 10 10L14 10C14.5523 10 15 9.55228 15 9Z" fill="currentColor"/>
</svg>
